<?xml version="1.0" encoding="UTF-8"?>
<svg id="Camada_2" data-name="Camada 2" xmlns="http://www.w3.org/2000/svg" viewBox="0 0 35 35">
  <defs>
    <style>
      .cls-1 {
        fill: #fff;
      }
    </style>
  </defs>
  <g id="grid">
    <path class="cls-1" d="M17.5,35c9.66,0,17.5-7.84,17.5-17.5S27.16,0,17.5,0,0,7.84,0,17.5s7.84,17.5,17.5,17.5ZM14.77,22.97h1.64v-4.37h-1.64c-.91,0-1.64-.73-1.64-1.64s.73-1.64,1.64-1.64h3.28c.91,0,1.64.73,1.64,1.64v6.02h.55c.91,0,1.64.73,1.64,1.64s-.73,1.64-1.64,1.64h-5.47c-.91,0-1.64-.73-1.64-1.64s.73-1.64,1.64-1.64ZM17.5,8.75c1.21,0,2.19.98,2.19,2.19s-.98,2.19-2.19,2.19-2.19-.98-2.19-2.19.98-2.19,2.19-2.19Z"/>
  </g>
</svg>