<?xml version="1.0" encoding="UTF-8"?>
<svg id="Camada_2" data-name="Camada 2" xmlns="http://www.w3.org/2000/svg" viewBox="0 0 33 35">
  <defs>
    <style>
      .cls-1 {
        fill: #fff;
      }
    </style>
  </defs>
  <g id="grid">
    <path class="cls-1" d="M32.9,11.39c.22.59.03,1.26-.44,1.68l-2.96,2.69c.08.57.12,1.15.12,1.74s-.04,1.17-.12,1.74l2.96,2.69c.47.42.66,1.09.44,1.68-.3.81-.66,1.59-1.08,2.35l-.32.55c-.45.75-.96,1.46-1.51,2.13-.4.49-1.07.66-1.68.46l-3.81-1.21c-.92.7-1.93,1.29-3.01,1.74l-.85,3.9c-.14.62-.62,1.11-1.24,1.22-.94.16-1.91.24-2.91.24s-1.96-.08-2.91-.24c-.63-.1-1.11-.59-1.24-1.22l-.85-3.9c-1.08-.44-2.09-1.03-3.01-1.74l-3.8,1.22c-.6.19-1.27.02-1.68-.46-.55-.67-1.06-1.38-1.51-2.13l-.32-.55c-.42-.75-.78-1.53-1.08-2.35-.22-.59-.03-1.26.44-1.68l2.96-2.69c-.08-.57-.12-1.16-.12-1.74s.04-1.17.12-1.74l-2.96-2.69c-.47-.42-.66-1.09-.44-1.68.3-.81.66-1.59,1.08-2.35l.32-.55c.45-.75.96-1.46,1.51-2.13.4-.49,1.07-.66,1.68-.46l3.81,1.21c.92-.7,1.93-1.29,3.01-1.74l.85-3.9c.14-.62.62-1.11,1.24-1.22.94-.16,1.91-.25,2.91-.25s1.96.08,2.91.24c.63.1,1.11.59,1.24,1.22l.85,3.9c1.08.44,2.09,1.03,3.01,1.74l3.81-1.21c.6-.19,1.27-.02,1.68.46.55.67,1.06,1.38,1.51,2.13l.32.55c.42.75.78,1.53,1.08,2.35h0ZM16.5,22.97c3.02,0,5.47-2.45,5.47-5.47s-2.45-5.47-5.47-5.47-5.47,2.45-5.47,5.47,2.45,5.47,5.47,5.47Z"/>
  </g>
</svg>