<?xml version="1.0" encoding="UTF-8"?>
<svg id="Camada_2" data-name="Camada 2" xmlns="http://www.w3.org/2000/svg" viewBox="0 0 35 35">
  <defs>
    <style>
      .cls-1 {
        fill: #fff;
      }
    </style>
  </defs>
  <g id="grid">
    <path class="cls-1" d="M8.75,4.38c0-2.41,1.96-4.38,4.38-4.38h10.94v8.75c0,1.21.98,2.19,2.19,2.19h8.75v19.69c0,2.41-1.96,4.38-4.38,4.38H13.12c-2.41,0-4.38-1.96-4.38-4.38v-7.66h11.9l-2.67,2.67c-.64.64-.64,1.68,0,2.32s1.68.64,2.32,0l5.47-5.47c.64-.64.64-1.68,0-2.32l-5.47-5.47c-.64-.64-1.68-.64-2.32,0s-.64,1.68,0,2.32l2.67,2.67h-11.9s0-15.31,0-15.31ZM8.75,19.69v3.28H1.64c-.91,0-1.64-.73-1.64-1.64s.73-1.64,1.64-1.64h7.11ZM35,8.75h-8.75V0l8.75,8.75Z"/>
  </g>
</svg>